<?xml version="1.0" encoding="utf-8"?>
<!-- Generator: Adobe Illustrator 27.5.0, SVG Export Plug-In . SVG Version: 6.00 Build 0)  -->
<svg version="1.1" xmlns="http://www.w3.org/2000/svg" xmlns:xlink="http://www.w3.org/1999/xlink" x="0px" y="0px"
	 viewBox="0 0 500 500" style="enable-background:new 0 0 500 500;" xml:space="preserve">
<g id="BACKGROUND">
	<rect style="fill:#FFFFFF;" width="500" height="500"/>
</g>
<g id="OBJECTS">
	<g>
		<path style="fill:#222221;" d="M279.648,202.913l-0.005-0.007l-0.114-0.144c-0.018-0.016-0.022-0.003-0.025,0.016L279.648,202.913
			z"/>
		<path style="fill:#222221;" d="M364.682,436.895c-2.913-5.709-6.175-27.961-6.175-27.961l-3.752,0.799
			c-2.854-8.167-7.996-22.673-11.95-32.671c0.925,0.507,1.896,1.001,2.913,1.464l-4.893-7.34c0,0,6.291,2.796,15.029,2.796
			c0,0-12.932-5.592-16.427-9.786c-3.495-4.194-3.845-11.184-11.883-17.476c-8.039-6.291-16.427-16.427-18.874-23.767
			c0,0,0,9.437,1.398,13.806l-7.34-8.913c0,0-2.796-16.078-7.34-30.757l-2.097-11.883c0,0,1.748,2.447,5.942,5.942
			c0,0,0-6.641-3.495-11.534c-3.495-4.893-3.146-15.612-5.243-19.34c-1.053-1.872-2.369-6.326-3.42-10.299
			c0.487,0.071,0.857,0.048,0.857-0.186c0-0.699-1.398-9.786-1.398-9.786l5.592,11.184l1.428-6.099
			c3.951,6.005,13.077,19.011,21.407,24.565l4.019,4.544c0,0,0.35,6.291,0.175,7.34c-0.175,1.048,6.99,5.942,6.99,5.942v11.709
			c0,0,5.243-1.747,4.893-6.99c0,0-0.316-6.466,0.017-7.514c0.333-1.049,4.178-2.447,4.702-0.699
			c0.482,1.606,0.079,6.596,0.01,7.395l-1.758,1.693c-2.098,0.095-1.238,2.548-1.238,2.548l0.006,0.012
			c-2.318,1.056-0.516,5.406-0.516,5.406l4.776-4.13l0.292,1.233c0,0-2.272,5.243,3.146,5.942l1.748-8.563l-0.922-4.534
			c0-0.001,2.145-6.825,2.145-7.699c0-0.874-2.731-3.676-2.731-3.676c0.033-0.756,0.022-1.391-0.065-1.741
			c-0.35-1.398-19.223-15.728-19.748-16.777c-0.322-0.644-7.758-12.749-13.451-22l7.51,2.311c0,0-16.544-19.107-18.408-24
			c-1.864-4.893-5.592-40.311-5.359-46.136c0.233-5.825-4.427-27.029-6.058-29.592c-1.631-2.563-30.99-19.107-30.99-19.107
			l4.607-15.022c5.548-0.472,10.538-3.604,14.812-7.742c2.452,2.895,5.98-3.1,5.98-3.1s9.087-2.563,9.087-7.922
			c0-2.747-2.386-2.98-4.713-2.558c3.625-6.13,5.645-11.189,5.645-11.189s6.291-10.951-5.126-14.679c0,0,3.495-4.66,3.262-9.32
			l-3.495,5.359c0,0-2.33-7.689-4.893-10.485c0,0,1.864,7.689,1.631,10.252c0,0-3.728-6.757-6.291-9.087
			c0,0,2.097,5.592,2.796,7.456c0,0-12.116-11.65-27.961-8.621c-10.346,1.978-10.157,6.637-4.307,9.244
			c-1.517,2.803-4.085,7.976-6.047,14.059c-0.81-1.344-2.092-2.37-4.092-1.633c-4.427,1.631,0,11.65,0,11.65
			s-1.616,4.805,1.41,5.311c0.02,5.129,1.181,10.122,4.274,14.305c-2.834,4.622-7.797,12.513-8.946,13.005
			c-1.631,0.699-7.689,0.699-10.719-1.631s-19.573-8.388-22.136-7.456c-2.563,0.932-7.689,6.291-7.922,11.185
			c-0.233,4.893-0.466,9.786-2.563,14.447c-2.097,4.66-4.427,13.747-4.66,17.942c-0.233,4.194-3.495,10.718-4.194,13.514
			c-0.699,2.796-1.631,5.126-3.262,6.058c0,0,3.728-0.466,4.893-2.796c0,0-4.194,13.98-7.689,16.078c0,0,5.126,0.233,7.689,1.864
			c0,0-2.097,5.825-4.194,8.155l-0.466-4.194c0,0-6.757,7.223-8.388,7.922c-1.631,0.699-13.282,5.825-13.282,7.922
			c0,1.649,0.718,6.311,1.026,8.233c-1.964,0.898-5.139,2.191-6.231,2.719c-1.368,0.661-5.165,5.323-6.113,6.935
			c-0.948,1.613-2.545,4.837-3.496,5.555c-0.951,0.719-4.104,2.28-5.295,2.582c-1.191,0.302-2.616,1.678-2.852,2.454
			c-0.236,0.776-0.529,1.969,0.072,3.456c0.601,1.488,2.456,3.448,2.456,3.448s0.25,3.098,1.026,3.632
			c0.777,0.534,2.273,2.316,2.273,2.316s-0.226,3.457,0.374,4.349c0.599,0.892,5.084,5.047,5.084,5.047s1.66-2.449,0.822-3.46
			c-0.838-1.01-2.452-2.256-2.577-3.805c0,0,5.072,1.769,6.743,2.299c0,0,0.885-2.387-0.608-3.276c0,0-2.383-1.078-4.002-2.196
			c1.102,0.372,2.434,0.67,3.781,0.599c0,0,0.266-3.338-1.364-3.65c-1.63-0.312-3.44,0.081-3.44,0.081
			c0.414-0.836,2.908-3.467,4.275-4.426c1.367-0.959,5.35-3.595,5.7-5.802c0,0,1.741,3.39,1.566,4.345
			c-0.175,0.954,1.4,7.981,2.714,8.929c1.315,0.949,4.177,1.475,5.358-1.51c0,0-2.507-0.944-3.231-3.385
			c-0.724-2.441-0.197-5.005-0.023-6.257c0.174-1.252-0.971-4.645-0.915-5.658c0.056-1.013,0.346-3.1,0.346-3.1
			s5.172-3.535,6.719-4.256c0.197-0.092,1.525-0.857,3.066-1.738l0.492,0.219c0,0,0.466,16.544,1.631,19.573
			c0,0,1.864-13.748,2.563-19.107c0,0,1.631,24.466,3.495,27.029c0,0,4.194-24.466,5.592-29.592
			c1.398-5.126,7.456-10.951,9.786-13.281c2.33-2.33,4.893-5.825,5.592-7.456c0.699-1.631,3.029-19.34,3.029-19.34
			s0,20.971,1.165,24.466c1.165,3.495,2.33,6.291,1.631,12.816c0,0,3.029-8.854,4.893-12.816c0.206-0.437,0.383-0.893,0.545-1.357
			c3.698,5.061,8.538,7.921,12.904,9.531c-0.489,2.046-1.099,3.477-1.099,3.477s0.885-1.395,2.235-3.082
			c1.916,0.628,3.709,1.027,5.224,1.274c-0.74,3.863-1.716,8.07-2.566,8.798c-1.631,1.398-5.825-2.33-5.825-2.33
			s2.33,9.786,2.33,12.35c0,2.563-0.932,5.825-2.33,5.592c-1.398-0.233-7.689-5.825-8.854-4.893l-2.097-2.796
			c0,0-1.631,6.291-1.165,7.922c0.466,1.631-1.631,5.126-2.563,5.359c-0.932,0.233-4.66-0.699-4.66-0.699l0.233,2.563l-5.126-1.398
			c0,0,1.631,6.99,3.612,8.388c1.981,1.398,1.981,4.946,1.515,8.415s-1.515,5.333-1.515,5.333s2.302-1.717,4.741-3.436
			c0.077,4.696,0.15,12.091-0.08,15.086c-0.35,4.544,0.66,19.223,0.155,24.116c-0.505,4.893-0.255,9.437,0.144,10.835
			c0.399,1.398-6.241,12.932-9.038,15.379c0,0,7.689-5.592,11.534-8.388c0,0-8.039,19.922-11.534,24.117l5.767-4.544
			c0,0-6.466,16.078-9.961,20.621l10.835-8.388c0,0-9.437,24.116-17.476,31.806c0,0,9.437,0,11.184-2.097
			c0,0-5.993,19.758-9.311,33.443c-1.68-0.215-5.447-0.613-5.718,0.11c0,0-3.262,22.252-6.175,27.961
			c-2.913,5.709-3.961,10.369-3.612,12.583c0.349,2.214,32.971,6.874,49.98,4.427c0,0,8.039-1.981,9.087-6.291
			c1.049-4.311-4.544-8.854-10.019-8.854c-2.217,0-11.534-0.932-15.495-6.058c-3.961-5.126,1.883-18.302,1.883-18.302l-0.002-0.001
			c0.194-0.031,0.387-0.064,0.566-0.105c0,0-0.462-0.841-3.866-2.022c4.545-11.13,12.184-29.652,14.351-33.745
			c0,0,1.049,9.087,3.845,14.68c0,0,3.495-21.32,5.243-25.165c0,0,1.048,14.33,6.641,23.417c0,0-1.748-27.262,0-31.806
			c1.748-4.544,2.097-11.184,2.447-18.524c0,0,3.146,4.893,5.942,7.34c0,0-2.097-26.563-1.748-31.456c0,0,2.447,5.243,3.845,6.99
			c0,0-1.049-45.786,0-51.379l9.58-2.097c0,0,7.896,19.223,12.09,27.262c4.194,8.039,5.942,15.379,7.34,20.621
			c1.398,5.243,2.097,16.427,0,22.019c0,0,4.544-5.243,6.291-9.786c0,0,3.495,18.524,6.641,22.369
			c3.146,3.845,18.874,13.282,23.068,18.874c4.194,5.592,8.039,15.379,6.99,22.718c0,0,4.044-6.846,7.152-13.375
			c3.022,7.111,9.247,21.772,13.774,32.525l-3.031,0.646c0,0,5.844,13.176,1.883,18.302c-3.961,5.126-13.279,6.058-15.495,6.058
			c-5.476,0-11.068,4.544-10.019,8.854c1.048,4.311,9.087,6.291,9.087,6.291c17.01,2.447,49.631-2.214,49.98-4.427
			C368.643,447.264,367.595,442.604,364.682,436.895z M294.269,240.904l0.217-0.36l0.349,0.385c0.885,0.975,1.781,1.912,2.69,2.822
			l0.733,0.703l0.37,0.346l0.183,0.167l0.025,0.008c0.062,0.018,0.077,0.001,0.076-0.022c-0.011-0.039-0.017-0.048-0.023-0.053
			c0,0.034-0.001,0.04-0.004-0.009c0.001,0,0.003,0.008,0.004,0.009c0.001-0.121-0.009-0.668-0.02-0.995l-0.059-1.461
			c-0.049-0.975-0.115-1.95-0.19-2.929l-0.026-0.285l-0.012-0.143l-0.033-0.243l-0.127-0.948l-0.239-1.75
			c0.959,0.474,1.846,0.954,2.553,1.357c0.564,0.345,1.054,0.671,1.578,1.024c-0.599-0.127-1.232-0.281-1.79-0.417
			c-0.409-0.069-0.67-0.1-0.798-0.064l0.231,0.551l0.086,0.2l0.019,0.043l0.034,0.144l0.067,0.289c0.238,0.992,0.41,2,0.527,3.014
			c0.061,0.507,0.104,1.016,0.138,1.526c0.031,0.575,0.059,0.79,0.066,2c-0.012,1.2-0.06,2.334-0.1,3.489
			c-1.015-0.928-1.966-1.751-2.905-2.713l-0.343-0.36l-0.182-0.204l-0.348-0.408c-0.228-0.275-0.449-0.556-0.662-0.842
			c-0.728-0.95-1.346-1.977-1.879-3.043c-0.26,0.36-0.442,0.807-0.484,1.3C293.786,242.367,293.867,241.574,294.269,240.904z
			 M238.234,78.993c-0.222-0.765-0.426-1.468-0.627-2.157c-0.216-0.699-0.43-1.389-0.687-2.064c-0.24-0.682-0.521-1.347-0.808-2.02
			c-0.293-0.656-0.592-1.324-0.917-2.05c0.62,0.463,1.16,1.031,1.594,1.67c0.447,0.633,0.793,1.333,1.069,2.057
			c0.258,0.731,0.447,1.489,0.515,2.26C238.455,77.457,238.409,78.24,238.234,78.993z M191.744,187.281
			c-0.858-0.195-1.681-0.417-2.518-0.593c-0.829-0.211-1.666-0.372-2.523-0.573c-0.859-0.173-1.738-0.399-2.695-0.659
			c0.852-0.507,1.806-0.81,2.771-0.894c0.968-0.113,1.947-0.021,2.897,0.179c0.942,0.235,1.863,0.581,2.684,1.106
			c0.831,0.498,1.555,1.189,2.098,2.02C193.481,187.683,192.591,187.503,191.744,187.281z M209.241,138.46
			c-0.163,1.498-0.514,2.968-0.952,4.398c-0.877,2.864-2.113,5.548-3.166,8.233c-1.089,2.68-1.957,5.351-2.341,8.189
			c-0.396,2.834-0.514,5.768-0.751,8.718c-0.532-2.903-0.942-5.847-0.797-8.862c0.054-1.503,0.271-3.021,0.634-4.498
			c0.375-1.469,0.856-2.899,1.399-4.286c1.123-2.76,2.421-5.377,3.556-8.025c0.542-1.333,1.057-2.671,1.464-4.052
			c0.389-1.383,0.669-2.805,0.797-4.284C209.344,135.446,209.388,136.96,209.241,138.46z M211.067,445.005
			c0.273-0.918,0.744-1.764,1.306-2.535c0.591-0.75,1.277-1.433,2.086-1.945c0.789-0.533,1.708-0.884,2.674-1.006
			c-0.571,0.787-1.096,1.501-1.635,2.162c-0.519,0.681-1.046,1.32-1.531,1.995c-0.515,0.652-0.986,1.333-1.499,2.018
			c-0.488,0.699-1.033,1.397-1.638,2.16C210.682,446.891,210.768,445.909,211.067,445.005z M197.548,449.791
			c-2.514,0.181-5.045,0.104-7.555-0.14c-2.507-0.281-4.998-0.727-7.421-1.423c-2.428-0.669-4.784-1.599-7.009-2.772
			c2.464,0.421,4.905,0.837,7.343,1.253c2.432,0.372,4.856,0.719,7.294,0.953c2.434,0.271,4.877,0.43,7.334,0.568
			c2.471,0.096,4.946,0.193,7.444,0.29C202.559,449.211,200.062,449.638,197.548,449.791z M202.631,439.367
			c1.874,0.763,4.012,1.101,6.151,0.391c-1.759,1.432-4.391,1.741-6.647,1.089c-2.293-0.609-4.347-1.998-5.857-3.857
			c-1.455-1.854-2.413-4.012-2.98-6.195c-0.597-2.184-0.816-4.407-0.899-6.633c0.838,2.069,1.562,4.151,2.372,6.135
			c0.834,1.974,1.776,3.857,3.071,5.447C199.079,437.316,200.76,438.566,202.631,439.367z M202.419,415.465
			c-1.612,0.754-3.351,1.265-5.127,1.473c-1.776,0.236-3.586,0.217-5.368-0.002c-1.779-0.245-3.538-0.673-5.194-1.364
			c-0.829-0.32-1.679-0.732-2.418-1.317c-0.737-0.575-1.36-1.384-1.53-2.268c0.536,0.721,1.268,1.136,2.022,1.434
			c0.763,0.297,1.56,0.484,2.392,0.668c1.66,0.357,3.312,0.672,4.983,0.865c1.665,0.239,3.344,0.339,5.042,0.426
			C198.918,415.435,200.635,415.46,202.419,415.465z M213.03,371.27c-0.142-0.427-0.265-0.86-0.371-1.298
			c-0.031-0.139-0.047-0.173-0.06-0.193l-0.041-0.079l-0.065-0.108c-0.023-0.024-0.042-0.035-0.059-0.038
			c-0.066,0.09-0.109,0.161-0.134,0.206c-0.072,0.081,0.114-0.041-0.322,0.309c-0.6,0.504-1.239,0.959-1.89,1.397
			c-1.533,0.966-3.168,1.783-4.898,2.308c-1.714,0.563-3.523,0.822-5.313,0.79c1.64-0.727,3.203-1.461,4.727-2.23
			c1.517-0.783,2.989-1.613,4.396-2.544c0.613-0.395,1.221-0.798,1.809-1.232c0.171-0.093,0.933-0.739,1.449-1.152l1.593-1.306
			l0.033,1.428l0.036,1.239l0.044,1.038l0.025,1.297c0.032,0.876,0.065,1.757,0.098,2.645
			C213.668,372.953,213.314,372.124,213.03,371.27z M261.004,128.426l0.428,0.303l0.212,0.154c0.1,0.073,0.242,0.184,0.344,0.282
			l0.674,0.615c0.151,0.216,0.241,0.43,0.257,0.693c0.015,0.569-0.292,0.984-0.795,1.268c-0.263,0.148-0.594,0.244-0.899,0.361
			l-0.521,0.195l-3.878,1.408l-1.865,0.628l-0.934,0.309l-0.234,0.077c-0.044,0.014-0.018,0.003-0.032,0.006l-0.03-0.001
			l-0.013,0.074c-0.002,0.022-0.005,0.007-0.007,0.062l-0.009,0.273l-0.05,1.093c-0.043,0.728-0.101,1.454-0.182,2.179
			c-0.274,2.771-0.855,5.51-1.714,8.151c0.093-2.776,0.145-5.511,0.155-8.232l-0.024-2.133l-0.058-2.812l4.341-1.562l3.916-1.297
			l0.454-0.143l0.048-0.001c0.033-0.001,0.099-0.008,0.112-0.053c0.007-0.04-0.022-0.069-0.05-0.118
			c-0.013-0.016-0.004-0.014-0.039-0.048l-0.189-0.17l-0.38-0.338c-2.047-1.778-4.168-3.496-6.388-5.165
			C256.248,125.475,258.729,126.801,261.004,128.426z M278.175,93.868c0.592-0.747,1.28-1.415,2.016-2.021
			c0.748-0.592,1.546-1.124,2.401-1.545c0.847-0.433,1.755-0.748,2.689-0.931c-0.796,0.557-1.546,1.081-2.287,1.6
			c-0.742,0.538-1.473,1.076-2.175,1.653c-0.713,0.563-1.394,1.165-2.077,1.776c-0.664,0.616-1.335,1.238-2.046,1.898
			C277.073,95.425,277.574,94.605,278.175,93.868z M263.233,77.508c0,0,1.748,1.835,2.184,1.835c0.437,0,9.961-1.66,9.961-1.66
			s-2.534,5.417-7.515,5.592C262.884,83.45,263.233,77.508,263.233,77.508z M256.833,87.119c-1.201-0.087-1.114-2.531-1.114-2.531
			h-2.621c0,0,2.752-4.897,3.735-4.634C257.816,80.216,258.034,87.207,256.833,87.119z M249.586,66.196c0,0,4.225,8.696,4.48,9.05
			c0.255,0.354,2.766,0.698,2.766,0.698s-4.615,3.759-7.386-0.383S249.586,66.196,249.586,66.196z M246.224,88.197h3.029v4.194
			h1.281l1.282-3.029c0,0,3.859,0.466,5.017,0.932v2.097l1.857,0.933c0,0,1.398-0.351,1.398-0.7c0-0.35,0.932-1.049,0.932-1.049
			v2.33c0,0,1.504,0.815,2.208,0.466c0.704-0.35,1.52-0.466,1.52-0.466l1.281,3.262c0,0-3.495-0.233-4.078,0
			c-0.583,0.233-1.282,1.049-1.747,1.049c-0.466,0-3.961,0-3.961,0l-0.35-2.68l-2.796-0.466l-1.165,2.679
			c0,0-5.942-2.563-7.223-3.845c-1.282-1.282-1.864-3.029-1.864-3.029S244.593,88.78,246.224,88.197z M239.743,120.868
			c0.843,0.487,1.686,0.971,2.539,1.435l1.282,0.691l1.418,0.74l1.283,0.656l0.646,0.331c0.081,0.059,0.276,0.103,0.264,0.174
			l-0.264,0.243l-1.953,1.799l-2.167,1.999l-1.133,1.02l-0.004,0.008c0.012,0.056,0.08,0.213,0.169,0.398l0.521,1.117
			c0.34,0.748,0.671,1.5,0.99,2.256c0.636,1.514,1.224,3.048,1.756,4.601c1.315,3.738,2.284,7.594,2.911,11.493
			c-1.379-3.702-2.829-7.339-4.365-10.928c-0.646-1.482-1.308-2.955-1.991-4.416l-1.043-2.183l-0.535-1.084
			c-0.087-0.182-0.204-0.389-0.306-0.725c-0.115-0.386-0.128-0.804,0.006-1.183c0.1-0.305,0.338-0.609,0.539-0.799l0.394-0.366
			l0.746-0.686l2.195-1.969c0.262-0.235,0.172-0.15,0.198-0.17l0.029-0.015c0.02-0.012-0.008-0.024-0.023-0.044l-1.171-0.672
			c-0.429-0.251-0.856-0.507-1.278-0.771c-0.847-0.522-1.675-1.074-2.492-1.638c-3.275-2.252-6.29-4.869-8.964-7.776
			C233.131,116.732,236.397,118.882,239.743,120.868z M226.418,194.1c-0.778,1.867-2.693,1.767-3.745,2.876
			c-5.562-2.241-8.915-6.374-10.69-9.286c0.274-0.231,0.574-0.432,0.92-0.581c1.796-0.77,3.937-1.759,5.856-2.953
			c2.761,4.199,6.109,6.736,8.654,8.195C227.015,192.939,226.66,193.519,226.418,194.1z M223.75,179.333
			c0.654-0.943,1.298-1.887,2.003-2.744c1.056,1.154,2.391,2.426,4.013,3.589c0.097,1.751,0.274,3.49,0.587,4.723
			C227.486,183.191,225.31,181.141,223.75,179.333z M279.69,250.362c-0.504-0.314-0.806-0.788-1.197-1.176l-2.229-2.455l-4.43-4.933
			l-0.563-0.597l-0.06-0.062c-0.015,0.006-0.022,0.059-0.033,0.086l-0.058,0.193l-0.095,0.363l-0.134,0.564l-0.165,0.788
			c-0.097,0.529-0.179,1.06-0.246,1.595c-0.26,2.143-0.276,4.323-0.259,6.521l0.094,8.256l0.036,11.409l-7.355-10.885l-5.911-8.873
			l-2.939-4.447l-1.464-2.228l-0.365-0.557l-0.163-0.25l-0.02-0.037l-0.094-0.171l-0.095,0.149c0.038-0.09-0.271,0.508-0.447,0.84
			l-1.209,2.293l-0.771,1.466c-0.133,0.247-0.245,0.477-0.411,0.763c-0.166,0.276-0.387,0.603-0.763,0.857
			c-0.372,0.239-0.839,0.368-1.307,0.282c-0.456-0.083-0.793-0.31-1.057-0.531c-0.518-0.456-0.848-0.953-1.163-1.427
			c-0.325-0.495-0.555-0.886-0.907-1.235c-0.344-0.345-0.729-0.662-1.173-0.897c-0.868-0.504-1.897-0.753-2.932-0.83
			c-2.101-0.164-4.189,0.593-5.998,1.794c-1.821,1.196-3.401,2.764-4.965,4.321c1.423-1.686,2.871-3.381,4.658-4.755
			c0.897-0.676,1.867-1.279,2.94-1.696c1.074-0.428,2.232-0.63,3.399-0.631c1.162,0.019,2.356,0.231,3.436,0.78
			c0.546,0.257,1.048,0.62,1.501,1.036c0.458,0.408,0.824,0.961,1.123,1.374c0.309,0.432,0.633,0.842,0.96,1.103
			c0.368,0.26,0.478,0.239,0.673,0.12c0.175-0.102,0.402-0.593,0.648-1.105l0.725-1.49l2.929-5.968l6.846,10.01l5.98,8.827
			l2.774,4.152l0.692,1.039l0.268,0.403l0.006,0.014l0.044,0.088l0.013-0.058l0.007-0.048l0.01-0.874l0.049-4.13l0.141-8.262
			c0.048-2.217,0.145-4.466,0.517-6.699c0.094-0.558,0.207-1.114,0.336-1.666l0.215-0.824l0.122-0.409
			c0.058-0.207,0.123-0.417,0.197-0.613c0.145-0.398,0.276-0.793,0.428-1.179l0.222-0.575c0.04-0.075,0.065-0.235,0.118-0.239
			l0.204,0.241l0.803,0.96l0.757,0.939l4.094,5.215l2.033,2.619c0.355,0.418,0.637,0.927,1.057,1.234
			c0.188,0.148,0.544,0.201,0.653-0.02c0.034-0.115-0.017-0.256-0.097-0.36c-0.066-0.117-0.257-0.173-0.302-0.003
			c0.018-0.063,0.067-0.137,0.147-0.128c0.074,0.008,0.133,0.057,0.182,0.107c0.093,0.105,0.168,0.244,0.139,0.403
			C280.342,250.571,279.921,250.501,279.69,250.362z M278.066,204.074l-0.145-0.626l-0.215-1.086l-0.385-2.273l-0.188-1.173
			l-0.094-0.593l-0.047-0.298c-0.026-0.084,0.024-0.024,0.057,0.004l0.103,0.092l1.674,1.5l1.97,1.831l0.205,0.187l-0.195-0.191
			l-0.403-0.393l-0.103-0.1c-0.023-0.023-0.005-0.006-0.009-0.011l0.005,0l0.006-0.004c0.001-0.005,0.004-0.007-0.004-0.02
			c-0.034-0.058-0.046-0.074-0.052-0.076c-0.002-0.008,0.01,0.019-0.002-0.017l-0.291-0.816c-0.2-0.542-0.368-1.095-0.552-1.643
			c-0.357-1.099-0.692-2.205-0.99-3.321c-0.607-2.229-1.112-4.485-1.487-6.761c-0.776-4.547-1.057-9.171-0.836-13.75
			c0.552,4.552,1.344,9.031,2.36,13.443c0.524,2.203,1.115,4.386,1.771,6.547c0.323,1.082,0.673,2.156,1.039,3.223
			c0.188,0.532,0.359,1.07,0.561,1.597l0.293,0.794c0.182,0.504,0.391,1.056,0.624,1.612l2.786,6.81l-3.778-3.611l-2.235-2.14
			l-0.01-0.01c-0.001,0.01-0.001,0.02-0.004,0.027l-0.009,0.164c0.004,0.056-0.009,0.025,0.009,0.157l0.1,0.618
			c0.762,4.444,1.915,8.842,3.474,13.154C280.803,212.935,279.107,208.587,278.066,204.074z M285.2,229.597
			c-0.224-1.457-0.478-2.907-0.674-4.381c-0.223-1.468-0.376-2.962-0.469-4.506c0.829,1.306,1.492,2.695,1.979,4.138
			c0.515,1.436,0.863,2.922,1.134,4.419c0.234,1.503,0.389,3.022,0.371,4.547c0.01,1.522-0.166,3.052-0.526,4.557
			c-0.417-1.49-0.761-2.952-1.028-4.413C285.693,232.502,285.461,231.048,285.2,229.597z M344.122,414.375
			c1.441-0.287,2.859-0.588,4.253-0.99c1.404-0.367,2.777-0.833,4.162-1.321c1.374-0.515,2.769-1.04,4.216-1.619
			c-0.986,1.207-2.194,2.235-3.541,3.026c-1.335,0.817-2.802,1.41-4.309,1.841c-1.517,0.396-3.08,0.634-4.645,0.611
			c-1.561,0.006-3.124-0.261-4.589-0.793C341.209,414.892,342.677,414.634,344.122,414.375z M334.538,446.392
			c-0.656-0.982-1.25-1.964-1.907-2.884c-0.626-0.937-1.32-1.811-2.059-2.664c-0.761-0.832-1.557-1.66-2.538-2.448
			c1.26,0.061,2.514,0.538,3.558,1.274c1.069,0.717,1.947,1.672,2.683,2.701c0.705,1.049,1.272,2.168,1.666,3.336
			c0.42,1.157,0.653,2.367,0.767,3.618C335.879,448.377,335.169,447.386,334.538,446.392z M335.147,373.121l-0.429-0.205
			l-0.194-0.079l-0.229-0.082c-0.023,0.134-0.029,0.264-0.037,0.354l-0.001,0.03l-0.027,0.123l-0.058,0.262l-0.118,0.523
			l-0.244,1.045l-0.512,2.084l-1.092,4.148l-1.538,5.426l-2.161-5.122l-1.02-2.645c-1.023-2.674-1.928-5.398-2.718-8.174
			c1.497,2.466,2.879,4.984,4.143,7.552l1.246,2.547c0.077,0.1,0.092,0.082,0.104,0.07c0.002-0.038,0.002-0.061,0.001-0.075
			l-0.003-0.015l-0.002-0.004l-0.001-0.001c0,0-0.002,0.005,0.001-0.006l0.024-0.088l1.201-4.118l0.635-2.049l0.699-2.149
			l0.627-2.001l1.32,0.961l0.958,0.654c0.495,0.329,1.005,0.639,1.531,0.93c1.052,0.581,2.164,1.082,3.331,1.49
			c-1.233-0.082-2.47-0.317-3.669-0.701C336.314,373.614,335.723,373.385,335.147,373.121z M342.924,435.827
			c1.146-1.454,2.086-3.045,2.749-4.753c0.694-1.695,1.11-3.495,1.281-5.338c0.141-1.844,0.052-3.74-0.407-5.677
			c1.172,1.611,1.855,3.633,1.967,5.686c0.147,2.059-0.234,4.145-0.985,6.071c-0.785,1.912-1.947,3.686-3.472,5.076
			c-1.497,1.409-3.383,2.405-5.342,2.766C340.383,438.572,341.756,437.261,342.924,435.827z M359.669,447.15
			c-1.898,0.798-3.872,1.404-5.871,1.895c-2.008,0.455-4.043,0.8-6.098,0.938c-2.05,0.165-4.121,0.112-6.169-0.161
			c2.005-0.499,3.978-0.958,5.945-1.377c1.962-0.447,3.918-0.864,5.861-1.344c1.951-0.444,3.886-0.949,5.84-1.431
			c1.945-0.509,3.915-0.982,5.932-1.434C363.402,445.4,361.576,446.378,359.669,447.15z"/>
	</g>
</g>
</svg>
